<svg data-v-423bf9ae="" xmlns="http://www.w3.org/2000/svg" viewBox="0 0 347 90" class="iconLeft"><defs data-v-423bf9ae=""><linearGradient data-v-423bf9ae="" gradientTransform="rotate(25)" id="dda949b7-53f5-47ba-95a3-af3fd53cff86" x1="0%" y1="0%" x2="100%" y2="0%"><stop data-v-423bf9ae="" offset="0%" style="stop-color: rgb(0, 103, 245); stop-opacity: 1;"></stop><stop data-v-423bf9ae="" offset="100%" style="stop-color: rgb(13, 197, 231); stop-opacity: 1;"></stop></linearGradient></defs><g data-v-423bf9ae="" id="8a44ee85-6a4b-4367-8d84-7737bf15ca99" fill="#ffffff" transform="matrix(4.307250444043897,0,0,4.307250444043897,138.4944842602527,16.076812611010975)"><path d="M4.51 8.67L4.51 10.50L0.35 10.50L0.35 8.67L0.94 8.67L0.94 5.36L0.35 5.36L0.35 3.51L3.00 3.51L3.30 4.34Q3.39 4.24 3.55 4.07Q3.71 3.89 3.93 3.72Q4.16 3.56 4.44 3.44Q4.72 3.32 5.05 3.32L5.05 3.32Q5.59 3.32 5.94 3.43Q6.30 3.54 6.54 3.70Q6.78 3.85 6.92 4.02Q7.06 4.20 7.14 4.33L7.14 4.33Q7.46 3.96 7.97 3.64Q8.47 3.32 9.20 3.32L9.20 3.32Q10.05 3.32 10.56 3.60Q11.07 3.89 11.35 4.36Q11.63 4.83 11.72 5.43Q11.82 6.03 11.82 6.68L11.82 6.68L11.82 8.61L12.50 8.61L12.50 10.50L8.95 10.50L8.95 7.07Q8.95 6.82 8.95 6.52Q8.96 6.22 8.93 5.95Q8.89 5.68 8.78 5.51Q8.67 5.33 8.41 5.33L8.41 5.33Q7.97 5.33 7.82 5.62Q7.67 5.91 7.67 6.36L7.67 6.36L7.67 8.62L8.51 8.62L8.51 10.50L4.89 10.50L4.89 6.93Q4.89 6.08 4.80 5.71Q4.72 5.33 4.30 5.33L4.30 5.33Q3.96 5.33 3.81 5.54Q3.67 5.74 3.67 6.17L3.67 6.17L3.67 8.67L4.51 8.67ZM13.80 5.71L13.22 4.09Q13.43 3.96 13.75 3.79Q14.07 3.63 14.47 3.46Q14.87 3.30 15.32 3.20Q15.78 3.09 16.27 3.09L16.27 3.09Q16.90 3.09 17.57 3.23Q18.24 3.36 18.80 3.69Q19.35 4.02 19.70 4.58Q20.06 5.14 20.06 5.98L20.06 5.98L20.06 8.71L20.90 8.71L20.90 10.50L17.91 10.50L17.57 9.87Q17.37 10.14 17.13 10.31Q16.88 10.49 16.63 10.58Q16.37 10.68 16.11 10.72Q15.86 10.77 15.68 10.77L15.68 10.77Q15.18 10.77 14.69 10.63Q14.20 10.49 13.80 10.21Q13.41 9.93 13.17 9.48Q12.92 9.04 12.92 8.43L12.92 8.43Q12.92 7.84 13.15 7.36Q13.38 6.89 13.78 6.55Q14.18 6.22 14.71 6.03Q15.25 5.85 15.83 5.85L15.83 5.85Q16.14 5.85 16.39 5.92Q16.63 5.98 16.81 6.06Q16.98 6.15 17.09 6.23Q17.19 6.31 17.22 6.34L17.22 6.34L17.22 5.85Q17.22 5.38 16.84 5.22Q16.46 5.07 15.89 5.07L15.89 5.07Q15.26 5.07 14.73 5.28Q14.21 5.49 13.80 5.71L13.80 5.71ZM16.32 8.95L16.32 8.95Q16.65 8.95 16.88 8.79Q17.12 8.64 17.22 8.48L17.22 8.48L17.22 7.95Q17.21 7.92 17.16 7.86Q17.11 7.80 17.01 7.73Q16.91 7.66 16.77 7.60Q16.62 7.55 16.39 7.55L16.39 7.55Q15.97 7.55 15.78 7.76Q15.58 7.97 15.58 8.29L15.58 8.29Q15.58 8.58 15.79 8.76Q16.00 8.95 16.32 8.95ZM26.89 7.08L26.89 7.08Q26.89 6.78 26.82 6.46Q26.75 6.15 26.62 5.91Q26.49 5.67 26.30 5.52Q26.11 5.36 25.89 5.36L25.89 5.36Q25.68 5.36 25.49 5.49Q25.30 5.61 25.16 5.84Q25.02 6.08 24.94 6.41Q24.86 6.73 24.89 7.15L24.89 7.15Q24.89 7.52 24.98 7.82Q25.06 8.12 25.20 8.35Q25.34 8.58 25.52 8.71Q25.70 8.83 25.90 8.83L25.90 8.83Q26.35 8.83 26.62 8.36Q26.89 7.88 26.89 7.08ZM21.46 13.36L21.46 11.52L22.05 11.52L22.05 5.36L21.46 5.36L21.46 3.50L24.67 3.50L24.91 3.99Q25.00 3.92 25.17 3.81Q25.33 3.71 25.54 3.62Q25.75 3.53 26.01 3.46Q26.28 3.39 26.60 3.39L26.60 3.39Q27.41 3.39 28.04 3.68Q28.66 3.98 29.07 4.48Q29.48 4.98 29.69 5.65Q29.90 6.31 29.90 7.06L29.90 7.06Q29.90 7.90 29.66 8.56Q29.41 9.23 28.99 9.69Q28.56 10.15 27.97 10.40Q27.38 10.65 26.71 10.65L26.71 10.65Q26.28 10.65 25.95 10.58Q25.62 10.51 25.40 10.42Q25.19 10.32 25.06 10.23Q24.93 10.14 24.89 10.11L24.89 10.11L24.89 11.52L25.65 11.52L25.65 13.36L21.46 13.36ZM34.31 8.67L34.31 10.50L30.39 10.50L30.39 8.67L30.98 8.67L30.98 5.32L30.39 5.32L30.39 3.50L33.64 3.50L33.64 8.67L34.31 8.67ZM30.79 1.46L30.79 1.46Q30.79 1.22 30.88 0.97Q30.98 0.71 31.17 0.50Q31.36 0.29 31.65 0.16Q31.93 0.03 32.30 0.03L32.30 0.03Q32.66 0.03 32.95 0.16Q33.24 0.29 33.43 0.50Q33.63 0.71 33.73 0.97Q33.84 1.22 33.84 1.46L33.84 1.46Q33.84 2.04 33.45 2.46Q33.05 2.87 32.30 2.87L32.30 2.87Q31.96 2.87 31.69 2.74Q31.42 2.62 31.21 2.41Q31.01 2.21 30.90 1.96Q30.79 1.71 30.79 1.46ZM40.42 0.10L39.58 1.71Q39.47 1.65 39.28 1.61Q39.09 1.57 38.81 1.57L38.81 1.57Q38.36 1.57 38.36 2.31L38.36 2.31L38.36 3.50L39.63 3.50L39.63 5.32L38.36 5.32L38.36 8.67L39.20 8.67L39.20 10.50L35.03 10.50L35.03 8.67L35.59 8.67L35.59 5.32L35.01 5.32L35.01 3.50L35.59 3.50L35.59 2.31Q35.59 2.02 35.66 1.57Q35.74 1.13 36.03 0.73Q36.32 0.32 36.86 0.04Q37.41-0.25 38.36-0.25L38.36-0.25Q38.63-0.25 38.93-0.22Q39.24-0.20 39.52-0.15Q39.80-0.10 40.04-0.04Q40.28 0.03 40.42 0.10L40.42 0.10ZM44.51 7.46L45.42 5.28L44.77 5.28L44.77 3.50L48.33 3.50L48.33 5.24L47.66 5.24L45.00 11.70Q44.84 12.03 44.64 12.38Q44.44 12.73 44.10 13.02Q43.76 13.31 43.25 13.50Q42.74 13.68 41.99 13.68L41.99 13.68Q41.44 13.65 41.03 13.45Q40.61 13.26 40.29 12.98L40.29 12.98L41.34 11.33Q41.52 11.48 41.73 11.62Q41.93 11.76 42.15 11.80L42.15 11.80Q42.32 11.83 42.46 11.78Q42.60 11.73 42.71 11.62Q42.83 11.51 42.91 11.36Q42.99 11.21 43.05 11.06L43.05 11.06L43.25 10.47L40.52 5.29L39.94 5.29L39.94 3.50L44.25 3.50L44.25 5.28L43.60 5.28L44.51 7.46Z"></path></g><g data-v-423bf9ae="" id="c4f583ee-08e2-442b-b7f1-cb28f2becd5c" transform="matrix(1.2139196215392196,0,0,1.2139196215392196,-0.10348163670516897,-20.71364476048703)" stroke="none" fill="#ffffff"><path d="m.479 91.5 32.893-26.324L66.547 91.5l32.787-26.324V17.36L66.547 43.107 33.372 17.36.479 43.107z" clip-rule="evenodd"></path></g></svg>